# xmcd
#
# Track frame offsets:
#	150
#	14235
#	84947
#	115735
#	124212
#	167710
#	190240
#	200865
#	216747
#	229492
#	243337
#	259467
#
# Disc length: 3631 seconds
#
# Revision: 0
# Processed by: cddbd v1.5.2PL0 Copyright (c) Steve Scherf et al.
# Submitted via: audiograbber 1.82.02
#
DISCID=bc0e2d0c
DTITLE=Various Artist - The Royal Classics CD10, Classical Favorites
DYEAR=2006
DGENRE=Classical
TTITLE0=Salzburger Soloists - Händel - Arrival of the Queen of Sheba 
TTITLE1=I Solisti di Zagreb - Corelli - Concerto Grosso Op. 6/8 in G Minor 'Chr
TTITLE1=istmas Concerto' Vivace,Grave,Allegro,Adagio,Allegro,Adagio,Vivace,Alle
TTITLE1=gro,Largo (Pastorale)
TTITLE2=Camerata Romana , Cond. Hanspeter Gmür - Torelli - Concerto for Trumpet
TTITLE2=, String and Basso Continuo in D Major
TTITLE3=London Festival Orch., Cond. Alfred Scholz - WA Mozart - German Dance n
TTITLE3=o 1
TTITLE4=Viennna Opera Orch., Cond. Alfred Scholz - Strauss - Viennese Bonbons
TTITLE5=Mozarteum Choir and Orch., Cond. Ernst Hinreiner - WA Mozart - Coronation
TTITLE5=Mass 'Gloria'
TTITLE6=Annelise Haupt-Stummer (piano) - Debussy - From Children's Corner 'The 
TTITLE6=Snow is Falling'
TTITLE7=Bamberger Streichorch., Cond. Hanspeter Gmür - Vivaldi - Concerto 'Lest
TTITLE7=ro Armonico' Op 3 - Allegro
TTITLE8=Viennna Opera Orch., Cond. Alfred Scholz - Strauss - 'Champagne' Polka
TTITLE9=Camerata Romana, Cond. Eugen Duvier - Telemann - Table Music, Suite no 
TTITLE9=2 in D Major VI 'Conclusion'
TTITLE10=Zagreb Phil. Chamber Studio, Cond. Tonco Ninie - Boccherini - Menuet C
TTITLE10=élèbre
TTITLE11=Unknown Artist(s) - Clarke - Trumpet Voluntary
EXTD=
EXTT0=
EXTT1=
EXTT2=
EXTT3=
EXTT4=
EXTT5=
EXTT6=
EXTT7=
EXTT8=
EXTT9=
EXTT10=
EXTT11=
PLAYORDER=
